<?xml version="1.0" standalone="no"?><!DOCTYPE svg PUBLIC "-//W3C//DTD SVG 1.1//EN" "http://www.w3.org/Graphics/SVG/1.1/DTD/svg11.dtd"><svg class="icon" width="200px" height="178.86px" viewBox="0 0 1145 1024" version="1.1" xmlns="http://www.w3.org/2000/svg"><path d="M1022.097833 0H123.640867A126.811146 126.811146 0 0 0 0 123.640867V900.359133a126.811146 126.811146 0 0 0 123.640867 123.640867h898.456966a126.811146 126.811146 0 0 0 123.640867-123.640867V123.640867A126.811146 126.811146 0 0 0 1022.097833 0zM123.640867 63.405573h898.456966a63.405573 63.405573 0 0 1 60.235294 60.235294V259.962848H63.405573V123.640867A63.405573 63.405573 0 0 1 123.640867 63.405573z m898.456966 897.188854H123.640867A63.405573 63.405573 0 0 1 63.405573 900.359133V323.368421h1018.927554v576.990712a63.405573 63.405573 0 0 1-60.235294 60.235294z"  /><path d="M925.721362 664.490402H760.866873l-88.767802-212.408668a36.141176 36.141176 0 0 0-29.800619-19.655728 31.702786 31.702786 0 0 0-29.166563 20.923839l-101.448917 285.325078L374.726935 596.012384a32.336842 32.336842 0 0 0-24.094118-9.510836 31.702786 31.702786 0 0 0-23.460062 11.413003l-147.100928 179.437771a31.702786 31.702786 0 0 0 48.822291 39.945511l126.811145-152.173375 147.734985 154.075542a32.336842 32.336842 0 0 0 29.800619 8.87678 31.702786 31.702786 0 0 0 23.460062-20.289783l90.669969-253.622291 63.405573 155.343653a31.702786 31.702786 0 0 0 29.166563 19.655728h190.216718a31.702786 31.702786 0 0 0 0-63.405573z"  /></svg>