<?xml version="1.0" standalone="no"?><!DOCTYPE svg PUBLIC "-//W3C//DTD SVG 1.1//EN" "http://www.w3.org/Graphics/SVG/1.1/DTD/svg11.dtd"><svg class="icon" width="200px" height="141.44px" viewBox="0 0 1448 1024" version="1.1" xmlns="http://www.w3.org/2000/svg"><path d="M883.101949 299.063459h-28.182019v-32.885042h18.788012c33.671173 0 61.06018-27.389007 61.060181-61.06018v-9.394006c0-33.672893-27.389007-61.067061-61.060181-61.067061H554.28937c-33.666013 0-61.06018 27.394167-61.06018 61.067061v9.394006c0 33.671173 27.394167 61.06018 61.06018 61.06018h18.793173v32.885042h-28.187179c-51.881199 0-93.946943 42.057143-93.946943 93.945223v403.964628c0 51.88808 42.065744 93.945222 93.946943 93.945222h338.206585c51.88808 0 93.945222-42.057143 93.945222-93.945222V393.008682c0-51.88808-42.057143-93.945222-93.945222-93.945223zM521.409488 205.118237v-9.394006c0-18.136057 14.750706-32.886763 32.879882-32.886763h319.418572c18.122295 0 32.878162 14.750706 32.878162 32.886763v9.394006c0 18.129176-14.755866 32.878162-32.878162 32.878161H554.28937c-18.129176 0-32.879882-14.748985-32.879882-32.878161z m79.855073 65.756323h225.46819v28.188899H601.264561v-28.188899z m347.602312 526.09875c0 36.265233-29.499691 65.764924-65.764924 65.764924H544.895364c-36.258352 0-65.758043-29.499691-65.758044-65.764924V393.008682c0-36.265233 29.499691-65.763204 65.758044-65.763204h338.206585c36.265233 0 65.764924 29.497971 65.764924 65.763204v403.964628z m0 0" fill="#2c2c2c" /><path d="M906.586104 463.469749a14.088429 14.088429 0 0 0-14.090149 14.091869v150.307539a14.091869 14.091869 0 0 0 28.182018 0V477.561618a14.088429 14.088429 0 0 0-14.091869-14.091869z m0 0M401.460019 365.224029c7.653165 1.396802 14.61481-1.620427 15.548878-6.719097 0.934068-5.107271-4.522403-10.37624-12.175568-11.773041l-55.455772-10.113049c-7.654885-1.391641-14.621691 1.611826-15.555759 6.719096-0.927187 5.10039 4.527563 10.37452 12.175568 11.773042l55.462653 10.113049z m0 0M403.765085 398.693939l-53.360569 18.189383c-7.357291 2.513211-11.981185 8.533907-10.307432 13.439914 1.673754 4.911168 9.010402 6.860153 16.369412 4.346943l53.35885-18.182503c7.359011-2.513211 11.981185-8.533907 10.300551-13.439914-1.665153-4.918049-9.003521-6.867034-16.360812-4.353823z m0 0M405.573014 258.000591c-5.416906-5.583766-12.829243-7.183551-16.556914-3.574573-3.71735 3.614138-2.346351 11.06604 3.070555 16.656686l39.241177 40.465959c5.416906 5.583766 12.827523 7.18183 16.550034 3.581454 3.72251-3.615858 2.351512-11.074641-3.063674-16.658406l-39.241178-40.47112z m0 0M1112.191157 352.731945c-0.934068-5.107271-7.902594-8.110738-15.555759-6.719097l-55.448891 10.11993c-7.654885 1.389921-13.111356 6.65889-12.177288 11.76616 0.922027 5.10555 7.888832 8.115898 15.548878 6.719097l55.457492-10.113049c7.646284-1.398522 13.102755-6.672652 12.175568-11.773041z m0 0M1056.996855 263.826905c-3.729391-3.608977-11.141728-2.009192-16.556914 3.574573l-39.242898 40.464239c-5.408305 5.590646-6.786185 13.049429-3.056793 16.658406 3.72251 3.614138 11.134847 2.009192 16.543153-3.574573l39.242897-40.47284c5.422067-5.583766 6.793065-13.042548 3.070555-16.649805z m0 0M854.685983 355.857546c-7.735734 0.564225-13.513883 7.248918-13.002983 14.982932 0.510899 7.735734 7.338368 13.601613 14.950248 13.130279 0.182341 0 17.423895-0.927187 27.779492 8.8229 5.70418 5.368741 8.47886 13.250692 8.478861 24.089665a14.091869 14.091869 0 0 0 28.182018 0c0-18.894665-5.912324-33.980809-17.571832-44.831824-19.137213-17.793737-45.826099-16.390055-48.815804-16.193952z m0 0M866.445263 825.155329H561.545169c-4.011504 0-7.255799 4.212767-7.255799 9.400887 0 5.179519 3.251176 9.394006 7.255799 9.394006h304.900094c4.011504 0 7.26268-4.214487 7.262679-9.394006 0-5.18812-3.251176-9.400887-7.262679-9.400887z m0 0" fill="#2c2c2c" /></svg>