<?xml version="1.0" standalone="no"?><!DOCTYPE svg PUBLIC "-//W3C//DTD SVG 1.1//EN" "http://www.w3.org/Graphics/SVG/1.1/DTD/svg11.dtd"><svg class="icon" width="200px" height="199.42px" viewBox="0 0 1027 1024" version="1.1" xmlns="http://www.w3.org/2000/svg"><path d="M341.304457 396.647781a42.2624 42.2624 0 0 1 84.512424 0v417.624287a42.2624 42.2624 0 1 1-84.512424 0z m260.046795 5.210094a42.2624 42.2624 0 1 1 84.512424 0v417.673789a42.2624 42.2624 0 1 1-84.512424 0z m10.197428-239.750943V107.320507a22.758581 22.758581 0 0 0-22.75858-22.758581h-147.268685a22.758581 22.758581 0 0 0-22.783331 22.758581v54.897805z m218.341294 84.561926H199.641883v670.010635a22.758581 22.758581 0 0 0 22.758581 22.758581H807.131393a22.758581 22.758581 0 0 0 22.758581-22.758581z m84.512424 0v670.010635a107.271005 107.271005 0 0 1-107.271005 107.271005H222.388089A107.271005 107.271005 0 0 1 115.092333 916.679493v-670.010635H42.2624a42.2624 42.2624 0 0 1 0-84.512424h291.96326V107.320507A107.271005 107.271005 0 0 1 441.496664 0.049502h147.268685a107.271005 107.271005 0 0 1 107.295755 107.271005v54.897805h288.844629a42.2624 42.2624 0 0 1 0 84.512424z" /></svg>