<?xml version="1.0" standalone="no"?><!DOCTYPE svg PUBLIC "-//W3C//DTD SVG 1.1//EN" "http://www.w3.org/Graphics/SVG/1.1/DTD/svg11.dtd"><svg class="icon" width="200px" height="200.00px" viewBox="0 0 1024 1024" version="1.1" xmlns="http://www.w3.org/2000/svg"><path d="M512 85.333333c235.648 0 426.666667 191.018667 426.666667 426.666667s-191.018667 426.666667-426.666667 426.666667S85.333333 747.648 85.333333 512 276.352 85.333333 512 85.333333z m0 64C311.701333 149.333333 149.333333 311.701333 149.333333 512s162.368 362.666667 362.666667 362.666667 362.666667-162.368 362.666667-362.666667S712.298667 149.333333 512 149.333333z m70.997333 420.309334l0.768-2.986667a32 32 0 0 1 61.952 15.701333 138.709333 138.709333 0 0 1-271.722666 0.298667 32 32 0 1 1 62.677333-12.842667 74.709333 74.709333 0 0 0 145.429333 3.776l1.664-6.933333-0.768 2.986667zM330.666667 405.333333a42.666667 42.666667 0 1 1 0 85.333334 42.666667 42.666667 0 0 1 0-85.333334z m362.666666 0a42.666667 42.666667 0 1 1 0 85.333334 42.666667 42.666667 0 0 1 0-85.333334z" fill="#2c2c2c" /></svg>