<?xml version="1.0" standalone="no"?><!DOCTYPE svg PUBLIC "-//W3C//DTD SVG 1.1//EN" "http://www.w3.org/Graphics/SVG/1.1/DTD/svg11.dtd"><svg class="icon" width="200px" height="200.00px" viewBox="0 0 1024 1024" version="1.1" xmlns="http://www.w3.org/2000/svg"><path d="M947.7 409.6l-70.8-30.8c-44.3-19.3-70.8-65-65.5-112.8l8.5-77.6c-49.4-46.7-109.3-82.5-176-103l-67 48.4c-19.3 14-42.1 21-64.9 21-22.8 0-45.5-7-64.9-21l-67-48.4c-66.8 20.5-126.6 56.3-176 103l8.5 77.6c5.3 47.8-21.3 93.5-65.5 112.8l-70.8 30.8C68.5 442.5 64 476.7 64 512s4.5 69.5 12.3 102.4l70.8 30.8c44.3 19.3 70.8 65 65.5 112.8l-8.5 77.6c49.4 46.7 109.3 82.5 176 103l67-48.4c19.3-14 42.1-21 64.9-21 22.8 0 45.5 7 64.9 21l67 48.4c66.8-20.5 126.6-56.3 176-103l-8.5-77.6c-5.3-47.8 21.3-93.5 65.5-112.8l70.8-30.8c7.8-32.9 12.3-67.1 12.3-102.4s-4.5-69.5-12.3-102.4z m-37.2 174.5l-50.6 22.1c-61.7 26.9-98.3 89.8-90.9 156.6l6.1 55.9c-36.9 31.5-79.2 56.2-124 72.6l-49.2-35.6c-26.3-19-57.4-29.1-89.9-29.1-32.5 0-63.6 10.1-89.9 29.1l-49.2 35.6c-44.8-16.4-87.1-41.2-124-72.6l6.1-55.8c7.4-66.8-29.2-129.7-90.9-156.6l-50.7-22.1c-4.5-24.4-6.8-48.6-6.8-72.1s2.3-47.6 6.8-72.1l50.7-22.1c61.7-26.9 98.3-89.8 90.9-156.6l-6.1-55.9c36.9-31.5 79.2-56.2 124-72.6l49.2 35.6c26.3 19 57.4 29.1 89.9 29.1 32.5 0 63.6-10.1 89.9-29.1l49.2-35.6c44.8 16.4 87.1 41.2 124 72.6l-6.1 55.8c-7.4 66.8 29.2 129.7 90.9 156.6l50.7 22.1c4.5 24.4 6.8 48.6 6.8 72.1s-2.4 47.6-6.9 72.1z" fill="#2c2c2c" /><path d="M512 362.7c-82.5 0-149.3 66.9-149.3 149.3 0 82.5 66.9 149.3 149.3 149.3S661.3 594.5 661.3 512c0-82.5-66.8-149.3-149.3-149.3z m0 256c-58.9 0-106.7-47.8-106.7-106.7S453.1 405.3 512 405.3 618.7 453.1 618.7 512 570.9 618.7 512 618.7z" fill="#2c2c2c" /></svg>