<?xml version="1.0" standalone="no"?><!DOCTYPE svg PUBLIC "-//W3C//DTD SVG 1.1//EN" "http://www.w3.org/Graphics/SVG/1.1/DTD/svg11.dtd"><svg class="icon" width="200px" height="200.00px" viewBox="0 0 1024 1024" version="1.1" xmlns="http://www.w3.org/2000/svg"><path d="M511.706311 799.568485c-76.879971 0-149.159158-29.938869-203.521277-84.300988-54.363142-54.363142-84.300988-126.641305-84.300988-203.5223 0-76.879971 29.938869-149.159158 84.300988-203.521277s126.641305-84.300988 203.521277-84.300988c76.880995 0 149.159158 29.938869 203.5223 84.300988 54.362118 54.363142 84.300988 126.641305 84.300988 203.521277 0 76.880995-29.938869 149.159158-84.300988 203.5223C660.864446 769.629615 588.587306 799.568485 511.706311 799.568485zM511.706311 287.88264c-123.438357 0-223.862557 100.4242-223.862557 223.862557s100.4242 223.862557 223.862557 223.862557 223.862557-100.4242 223.862557-223.862557S635.144668 287.88264 511.706311 287.88264z" fill="#2c2c2c" /><path d="M127.941927 543.725562 63.981197 543.725562c-17.662265 0-31.980365-14.3181-31.980365-31.980365s14.3181-31.980365 31.980365-31.980365l63.960731 0c17.662265 0 31.980365 14.3181 31.980365 31.980365S145.604192 543.725562 127.941927 543.725562z" fill="#2c2c2c" /><path d="M959.430402 543.725562l-63.960731 0c-17.662265 0-31.980365-14.3181-31.980365-31.980365s14.3181-31.980365 31.980365-31.980365l63.960731 0c17.662265 0 31.980365 14.3181 31.980365 31.980365S977.092667 543.725562 959.430402 543.725562z" fill="#2c2c2c" /><path d="M511.706311 991.449653c-17.662265 0-31.980365-14.3181-31.980365-31.980365l0-63.960731c0-17.662265 14.3181-31.980365 31.980365-31.980365s31.980365 14.3181 31.980365 31.980365l0 63.960731C543.686676 977.131553 529.367553 991.449653 511.706311 991.449653z" fill="#2c2c2c" /><path d="M511.706311 159.962202c-17.662265 0-31.980365-14.3181-31.980365-31.980365L479.725946 64.021106c0-17.662265 14.3181-31.980365 31.980365-31.980365S543.686676 46.358841 543.686676 64.021106l0 63.960731C543.686676 145.643078 529.367553 159.962202 511.706311 159.962202z" fill="#2c2c2c" /><path d="M198.331068 860.31501c-8.184403 0-16.368806-3.122107-22.61302-9.366322-12.489452-12.489452-12.489452-32.737612 0-45.227064l45.227064-45.227064c12.489452-12.489452 32.738635-12.489452 45.227064 0 12.489452 12.489452 12.489452 32.737612 0 45.227064l-45.227064 45.227064C214.700897 857.192903 206.515471 860.31501 198.331068 860.31501z" fill="#2c2c2c" /><path d="M786.281877 272.363178c-8.185426 0-16.367783-3.121084-22.614044-9.367345-12.488429-12.489452-12.488429-32.737612 0-45.227064l45.227064-45.227064c12.489452-12.488429 32.737612-12.489452 45.227064 0 12.488429 12.489452 12.488429 32.737612 0 45.227064l-45.227064 45.227064C802.651706 269.241071 794.465257 272.363178 786.281877 272.363178z" fill="#2c2c2c" /><path d="M831.508941 860.31501c-8.184403 0-16.368806-3.122107-22.614044-9.366322l-45.227064-45.227064c-12.488429-12.489452-12.488429-32.737612 0-45.227064 12.489452-12.489452 32.737612-12.489452 45.227064 0l45.227064 45.227064c12.488429 12.489452 12.488429 32.737612 0 45.227064C847.877747 857.192903 839.693344 860.31501 831.508941 860.31501z" fill="#2c2c2c" /><path d="M243.558132 272.363178c-8.184403 0-16.368806-3.122107-22.614044-9.366322l-45.227064-45.227064c-12.489452-12.489452-12.489452-32.738635 0-45.227064 12.489452-12.488429 32.737612-12.488429 45.227064 0l45.227064 45.227064c12.489452 12.489452 12.489452 32.738635 0 45.227064C259.926938 269.241071 251.742535 272.363178 243.558132 272.363178z" fill="#2c2c2c" /><path d="M75.389014 0" fill="#2c2c2c" /></svg>