<?xml version="1.0" standalone="no"?><!DOCTYPE svg PUBLIC "-//W3C//DTD SVG 1.1//EN" "http://www.w3.org/Graphics/SVG/1.1/DTD/svg11.dtd"><svg class="icon" width="200px" height="166.78px" viewBox="0 0 1228 1024" version="1.1" xmlns="http://www.w3.org/2000/svg"><path d="M1182.968863 222.859009h-91.107848v89.06048c0 24.568408-20.268937 44.427872-45.451556 44.427872a45.042082 45.042082 0 0 1-45.451555-44.53024v-89.060481h-91.107848a45.042082 45.042082 0 0 1-45.451555-44.427872c0-24.568408 20.473674-44.53024 45.553924-44.53024h91.005479v-89.06048c0-24.568408 20.371305-44.427872 45.451555-44.427872a45.042082 45.042082 0 0 1 45.553924 44.53024v89.060481h91.00548a45.042082 45.042082 0 0 1 45.451555 44.427871c0 24.568408-20.473674 44.53024-45.451555 44.530241zM909.952425 378.663665a67.563123 67.563123 0 0 1-68.279702 66.744176 67.563123 67.563123 0 0 1-68.177333-66.744176 67.563123 67.563123 0 0 1 68.177333-66.846544 67.563123 67.563123 0 0 1 68.279702 66.846544zM727.839098 222.859009H91.107848v620.352311c0-0.409473 99.604422-436.805827 270.150123-436.805827 112.2981 0 226.541199 337.50851 297.687215 439.569773 0 0 55.893129-221.115675 152.221763-222.548833 95.202582-1.433157 144.339399 219.682518 144.3394 219.682518h45.553923v-264.11039c0-24.568408 20.371305-44.632609 45.451556-44.632608a45.042082 45.042082 0 0 1 45.553924 44.53024V934.933378a90.084164 90.084164 0 0 1-91.107848 89.06048H91.107848A90.084164 90.084164 0 0 1 0 934.933378V222.859009c0-49.136817 40.742611-89.06048 91.005479-89.060481H727.839098a45.042082 45.042082 0 0 1 45.553924 44.53024c0 24.568408-20.473674 44.53024-45.553924 44.530241z" /></svg>